<svg aria-hidden="true" xmlns="http://www.w3.org/2000/svg" xmlns:xlink="http://www.w3.org/1999/xlink"><symbol viewBox="0 0 16 8" id="button-arrow" xmlns="http://www.w3.org/2000/svg">
<path d="M15.8167 3.55756C15.8165 3.55737 15.8163 3.55715 15.8161 3.55696L12.5504 0.306967C12.3057 0.0634988 11.91 0.0644048 11.6665 0.309092C11.423 0.553748 11.4239 0.949466 11.6686 1.19297L13.8612 3.37496H0.625C0.279813 3.37496 0 3.65478 0 3.99996C0 4.34515 0.279813 4.62496 0.625 4.62496H13.8612L11.6686 6.80696C11.4239 7.05046 11.423 7.44618 11.6665 7.69083C11.91 7.93555 12.3058 7.9364 12.5504 7.69296L15.8162 4.44296C15.8163 4.44278 15.8165 4.44256 15.8167 4.44237C16.0615 4.19806 16.0607 3.80106 15.8167 3.55756Z"/>
</symbol><symbol viewBox="0 0 8 16" id="facebook" xmlns="http://www.w3.org/2000/svg">
<path d="M7.47579 8.85445L7.89041 6.22015H5.29679V4.51064C5.29679 3.78995 5.65908 3.08746 6.82078 3.08746H8V0.844737C8 0.844737 6.92981 0.666748 5.90666 0.666748C3.77055 0.666748 2.37442 1.92836 2.37442 4.21238V6.22015H0V8.85445H2.37442V15.2227C2.8578 15.2965 3.34634 15.3335 3.83562 15.3334C4.33271 15.3334 4.82069 15.2955 5.29679 15.2227V8.85445H7.47579Z"/>
</symbol><symbol viewBox="0 0 14 20" id="linkedin" xmlns="http://www.w3.org/2000/svg">
<path fill-rule="evenodd" clip-rule="evenodd" d="M1.81828 0.666748C1.78423 0.666748 1.75028 0.667173 1.71644 0.668019H12.3511C12.3172 0.667173 12.2833 0.666748 12.2492 0.666748H1.81828ZM12.2788 19.3333H1.78874C1.79858 19.3334 1.80843 19.3334 1.81828 19.3334H12.2492C12.2591 19.3334 12.2689 19.3334 12.2788 19.3333ZM10.7914 16.572H13.5223L13.5235 11.6856C13.5235 9.28671 13.0131 7.44277 10.2453 7.44277C9.72593 7.42325 9.2111 7.54675 8.75559 7.80013C8.30009 8.05351 7.92096 8.42728 7.6586 8.88162H7.6219V7.66433H5.00024V16.5717H7.73114V12.1653C7.73114 11.0033 7.94875 9.87792 9.37109 9.87792C10.7732 9.87792 10.7914 11.2076 10.7914 12.2405V16.572ZM1.03839 6.17641C1.29903 6.35273 1.60545 6.44681 1.91889 6.44676C2.127 6.44672 2.33307 6.40516 2.52533 6.32447C2.71759 6.24377 2.89227 6.1255 3.03941 5.97643C3.18654 5.82736 3.30324 5.65039 3.38285 5.45564C3.46246 5.26089 3.50341 5.05216 3.50337 4.84137C3.50332 4.52392 3.41032 4.21361 3.23613 3.94968C3.06195 3.68576 2.81441 3.48007 2.52481 3.35864C2.23521 3.23721 1.91656 3.20548 1.60915 3.26747C1.30175 3.32946 1.01939 3.48238 0.7978 3.70689C0.576206 3.93141 0.425321 4.21744 0.364228 4.52881C0.303134 4.84018 0.334576 5.1629 0.454575 5.45617C0.574575 5.74944 0.777743 6.00009 1.03839 6.17641ZM0.550597 16.572H3.28433V7.66433H0.550597V16.572Z"/>
</symbol><symbol viewBox="0 0 15 13" id="slider-arrow" xmlns="http://www.w3.org/2000/svg">
<path fill-rule="evenodd" clip-rule="evenodd" d="M9.75736 11.8033L14.5303 7.03031C14.8232 6.73741 14.8232 6.26254 14.5303 5.96965L9.75736 1.19668C9.46447 0.903784 8.98959 0.903784 8.6967 1.19668C8.40381 1.48957 8.40381 1.96444 8.6967 2.25734L12.1893 5.74998H1C0.585786 5.74998 0.25 6.08576 0.25 6.49998C0.25 6.91419 0.585786 7.24998 1 7.24998H12.1893L8.6967 10.7426C8.40381 11.0355 8.40381 11.5104 8.6967 11.8033C8.98959 12.0962 9.46447 12.0962 9.75736 11.8033Z"/>
</symbol><symbol viewBox="0 0 14 12" id="twitter" xmlns="http://www.w3.org/2000/svg">
<path d="M4.40218 12C9.68546 12 12.5747 7.38372 12.5747 3.38065C12.5747 3.24955 12.5721 3.11904 12.5666 2.98907C13.1287 2.56008 13.6139 2.02888 13.9993 1.42039C13.4847 1.66169 12.9308 1.8241 12.3499 1.89734C12.9429 1.52226 13.3981 0.929023 13.6129 0.221776C13.0491 0.57457 12.4322 0.823255 11.789 0.957116C11.2649 0.368289 10.5187 0 9.69237 0C8.10616 0 6.81987 1.35667 6.81987 3.02896C6.81987 3.26669 6.8451 3.49793 6.89438 3.71971C4.50713 3.59301 2.39029 2.38756 0.973584 0.554589C0.718426 1.01686 0.584207 1.5423 0.584643 2.0772C0.584643 3.12821 1.09174 4.05604 1.86285 4.59884C1.40673 4.58416 0.960617 4.45422 0.561999 4.21994C0.561576 4.23268 0.561576 4.24506 0.561576 4.25864C0.561576 5.72575 1.55166 6.95068 2.86595 7.22824C2.61911 7.29916 2.36439 7.33501 2.10856 7.33487C1.92737 7.33474 1.74661 7.31644 1.56872 7.28022C1.9344 8.48388 2.99477 9.35979 4.25194 9.38427C3.26885 10.197 2.03043 10.681 0.684474 10.681C0.452913 10.681 0.224171 10.6671 -0.000671387 10.6391C1.27054 11.4984 2.77998 11.9999 4.40232 11.9999"/>
</symbol></svg>