<svg width="313" height="154" viewBox="0 0 313 154" fill="none" xmlns="http://www.w3.org/2000/svg">
<path d="M300.544 100.854C329.313 78.8629 290.669 68.0156 261.757 90.1185C251.323 98.1243 238.907 106.469 224.947 112.105C220.424 114.063 215.718 115.466 211.283 116.177C209.744 116.449 208.39 116.401 207.435 116.042L207.355 115.85C206.366 112.563 214.942 104.011 218.04 100.065C224.644 91.6044 230.173 83.6603 232.024 75.8061C237.931 49.5433 202.738 34.7772 153.884 48.9627C142.649 52.4849 131.42 56.3579 120.258 60.5606C112.852 63.1743 113.338 62.1559 114.503 57.5736C115.936 51.1777 124.07 42.5665 128.644 35.6973C135.471 25.4943 139.909 15.3827 133.347 8.9111C111.574 -12.5166 19.3102 20.8287 2.93074 54.3666C-3.55088 67.5859 19.6737 67.2616 36.9874 55.5592C45.4434 49.8176 55.7695 43.1936 66.3946 39.6572C67.2027 39.3209 73.3581 38.1656 76.8306 37.3976C73.6001 40.4783 71.0565 46.4852 69.0173 49.3306C65.9 53.5353 63.1567 57.715 60.8024 61.8475C56.5042 69.737 55.0618 77.1342 56.58 83.5024C58.1617 90.1584 64.4748 94.8083 74.447 96.6622C84.4192 98.5161 97.4357 97.4597 111.286 93.6725C128.005 89.1974 150.018 77.397 163.394 79.4697C174.87 81.257 176.142 88.8705 169.863 97.8384C158.76 113.711 143.468 129.086 150.552 141.278C157.84 153.871 184.976 154.836 213.653 146.565C245.821 137.206 276.848 118.998 300.544 100.854Z" fill="white" stroke="#864BD8" stroke-width="3"/>
</svg>
