<svg width="310" height="150" viewBox="0 0 310 150" fill="none" xmlns="http://www.w3.org/2000/svg">
<path d="M299.544 98.8541C328.313 76.8629 289.669 66.0157 260.757 88.1185C250.323 96.1243 237.907 104.469 223.947 110.105C219.424 112.063 214.718 113.466 210.283 114.177C208.744 114.449 207.39 114.401 206.435 114.042L206.355 113.85C205.366 110.563 213.942 102.011 217.04 98.0651C223.644 89.6044 229.173 81.6603 231.024 73.8061C236.931 47.5433 201.738 32.7772 152.884 46.9627C141.649 50.4849 130.42 54.3579 119.258 58.5607C111.852 61.1743 112.338 60.1559 113.502 55.5736C114.936 49.1778 123.07 40.5665 127.644 33.6973C134.471 23.4943 138.909 13.3827 132.347 6.9111C110.574 -14.5166 18.3101 18.8287 1.93068 52.3666C-4.55095 65.5859 18.6736 65.2616 35.9873 53.5592C44.4433 47.8176 54.7694 41.1936 65.3945 37.6572C66.2026 37.3209 72.358 36.1656 75.8305 35.3976C72.6 38.4783 70.0564 44.4852 68.0173 47.3306C64.8999 51.5353 62.1567 55.715 59.8023 59.8475C55.5041 67.737 54.0617 75.1342 55.58 81.5024C57.1616 88.1584 63.4747 92.8083 73.4469 94.6622C83.4191 96.5161 96.4356 95.4597 110.286 91.6725C127.005 87.1974 149.018 75.397 162.394 77.4697C173.87 79.257 175.142 86.8705 168.863 95.8384C157.76 111.711 142.468 127.086 149.551 139.278C156.84 151.871 183.976 152.836 212.653 144.565C244.821 135.206 275.847 116.998 299.544 98.8541Z" fill="white"/>
</svg>
